<?xml version="1.0" encoding="utf-8"?>
<!-- Generator: Adobe Illustrator 18.0.0, SVG Export Plug-In . SVG Version: 6.00 Build 0)  -->
<!DOCTYPE svg PUBLIC "-//W3C//DTD SVG 1.1//EN" "http://www.w3.org/Graphics/SVG/1.1/DTD/svg11.dtd">
<svg version="1.1" id="Layer_1" xmlns="http://www.w3.org/2000/svg" xmlns:xlink="http://www.w3.org/1999/xlink" x="0px" y="0px"
	 viewBox="0 0 1489.1 423.2" enable-background="new 0 0 1489.1 423.2" xml:space="preserve">
<g>
	<path fill="#FFFFFF" d="M311.2,41.9c4.4,0,6.3,3.4,3.9,6.3L190.7,222.8v156.5c0,2-2,3.9-4.9,3.9h-55.6c-2.9,0-4.9-2-4.9-3.9V222.8
		C84.4,164.3,42,106.3,1.1,48.3c-2.4-2.9-0.5-6.3,3.9-6.3h67.8c1,0,3.4,0.5,3.9,1.5L158.1,157l81.4-113.6c0.5-1,2.4-1.5,3.4-1.5
		H311.2z"/>
	<path fill="#FFFFFF" d="M634.4,41.9c2.9,0,4.9,2,4.9,3.9v199.4c0,3.4-0.5,36.6-17.1,69.7c-23.9,46.8-68.3,73.1-126.3,73.1
		S393.1,362.3,369.7,315c-16.6-33.2-17.1-66.3-17.1-69.7V45.8c0-2,2-3.9,4.4-3.9H634.4z M574.4,244.8V100.4h-157v144.8
		c0,0,0.5,21.9,11.2,42.4c13.2,24.9,35.1,37.1,67.3,37.1s54.1-12.2,67.3-37.1C574,267.2,574.4,245.3,574.4,244.8z"/>
	<path fill="#FFFFFF" d="M838.7,41.4c44.9,11.2,76.5,47.3,77.5,95.6c0,2.4-2,4.4-4.9,4.4h-54.6c-2.4,0-4.9-2-4.9-4.4
		c-1-24.4-20-36.1-42.4-36.1c-23.9,0-43.4,13.7-43.4,42.9c0,24.9,21,38,43.4,38c2.4,0,26.3,0,50.7,11.2c37.1,17.6,57,52.7,57,93.1
		c0,54.6-35.1,88.3-78.5,98.5v35.1c0,1.5-2,3.4-4.9,3.4h-46.3c-2.9,0-4.9-2-4.9-3.4v-35.1c-46.8-9.3-80.9-42.4-81.4-97.5
		c0-2,2-3.4,4.9-3.4h55.1c2.4,0,4.9,1.5,4.9,3.4c1,25.4,21,37.5,43.4,37.5c22.9,0,43.4-14.6,43.4-38.5c0-25.8-23.9-41.9-43.4-42.9
		c-2.9,0-26.8,0-51.7-11.2c-36.1-17.1-56.6-47.8-56.6-88.3c0-55.1,36.6-92.2,81.4-102.4V3.9c0-2,2-3.9,4.9-3.9h46.3
		c2.9,0,4.9,2,4.9,3.9V41.4z"/>
	<path fill="#FFFFFF" d="M1103.5,41.4c44.9,11.2,76.5,47.3,77.5,95.6c0,2.4-2,4.4-4.9,4.4h-54.6c-2.4,0-4.9-2-4.9-4.4
		c-1-24.4-20-36.1-42.4-36.1c-23.9,0-43.4,13.7-43.4,42.9c0,24.9,21,38,43.4,38c2.4,0,26.3,0,50.7,11.2c37.1,17.6,57,52.7,57,93.1
		c0,54.6-35.1,88.3-78.5,98.5v35.1c0,1.5-2,3.4-4.9,3.4h-46.3c-2.9,0-4.9-2-4.9-3.4v-35.1c-46.8-9.3-80.9-42.4-81.4-97.5
		c0-2,2-3.4,4.9-3.4h55.1c2.4,0,4.9,1.5,4.9,3.4c1,25.4,21,37.5,43.4,37.5c22.9,0,43.4-14.6,43.4-38.5c0-25.8-23.9-41.9-43.4-42.9
		c-2.9,0-26.8,0-51.7-11.2C986.4,215,966,184.3,966,143.8c0-55.1,36.6-92.2,81.4-102.4V3.9c0-2,2-3.9,4.9-3.9h46.3
		c2.9,0,4.9,2,4.9,3.9V41.4z"/>
	<path fill="#FFFFFF" d="M1231.7,164.8c0-69.7,58-127.7,128.7-127.7s128.7,58,128.7,127.7c0,70.2-58,127.7-128.7,127.7
		S1231.7,235,1231.7,164.8z M1474,379.3c0,2-2,3.9-4.9,3.9h-219.9c-2.9,0-4.9-2-4.9-3.9v-55.1c0-2,2-3.9,4.9-3.9h219.9
		c2.9,0,4.9,2,4.9,3.9V379.3z M1296.5,164.8c0,36.6,28.8,64.8,63.9,64.8c35.6,0,63.9-28.3,63.9-64.8c0-36.1-28.3-64.8-63.9-64.8
		C1325.3,100,1296.5,128.7,1296.5,164.8z"/>
</g>
</svg>
